<svg width="255" height="48" viewBox="0 0 255 48" fill="none" xmlns="http://www.w3.org/2000/svg">
<rect width="5.41766" height="22.979" transform="matrix(0.873028 0.48767 -0.497212 0.867629 24.459 24.3583)" fill="#C5F74F"/>
<rect width="5.41766" height="22.979" transform="matrix(0.873028 0.48767 -0.497212 0.867629 43.2793 12.6755)" fill="#C5F74F"/>
<rect width="5.41766" height="22.979" transform="matrix(0.873028 0.48767 -0.497212 0.867629 72.2383 12.676)" fill="#C5F74F"/>
<rect width="5.41766" height="22.979" transform="matrix(0.873028 0.48767 -0.497212 0.867629 53.4121 24.3583)" fill="#C5F74F"/>
<path d="M94.5 20.2221H101.96C108.47 20.2221 111.87 24.1537 111.87 31.6785C111.87 39.4772 108.518 43.4732 101.96 43.4732H94.5V20.2221ZM99.0761 24.1698V39.5255H101.332C105.36 39.5255 107.197 37.1086 107.197 31.759C107.197 26.6351 105.296 24.1698 101.332 24.1698H99.0761Z" fill="#F3F4F6"/>
<path d="M124.461 35.5939V40.2345H129.617V43.4732H116.855V40.2345H120.239V28.9554H116.533V25.7005H124.493V30.2605H125.186C125.959 26.7318 127.78 25.2333 131.131 25.2333C132.13 25.2333 133.033 25.3622 133.661 25.6039V30.3894C132.855 30.0833 131.695 29.8738 130.696 29.8738C126.507 29.8738 124.461 31.7752 124.461 35.5939Z" fill="#F3F4F6"/>
<path d="M147.106 22.0751C145.301 22.0751 144.093 20.9633 144.093 19.2876C144.093 17.6118 145.301 16.5 147.106 16.5C148.91 16.5 150.135 17.6118 150.135 19.2876C150.135 20.9633 148.91 22.0751 147.106 22.0751ZM154.695 43.4732H139.339V39.9606H145.043V29.2293H139.629V25.7005H149.329V39.9606H154.695V43.4732Z" fill="#F3F4F6"/>
<path d="M161.533 43.4732V40.8468L170.782 29.5354V29.2615H161.678V25.7005H176.067V28.6653L167.334 39.6383V39.9122H176.261V43.4732H161.533Z" fill="#F3F4F6"/>
<path d="M183.583 43.4732V40.8468L192.831 29.5354V29.2615H183.728V25.7005H198.116V28.6653L189.383 39.6383V39.9122H198.31V43.4732H183.583Z" fill="#F3F4F6"/>
<path d="M220.842 43.4732H205.487V39.9606H211.126V22.4457H205.777V18.9331H215.541V39.9606H220.842V43.4732Z" fill="#F3F4F6"/>
<path d="M238.895 38.4782H243.053C242.682 41.6202 239.54 43.8599 235.415 43.8599C230.243 43.8599 227.278 40.9596 227.278 35.9162V33.0642C227.278 28.4075 230.5 25.3299 235.334 25.3299C240.039 25.3299 243.053 28.4236 243.053 33.1931V35.6423H231.596V36.6091C231.596 38.9293 233.095 40.444 235.399 40.444C237.171 40.444 238.573 39.6383 238.895 38.4782ZM235.254 28.7459C232.966 28.7459 231.596 30.2766 231.596 32.8225H238.799C238.799 30.2766 237.477 28.7459 235.254 28.7459Z" fill="#F3F4F6"/>
</svg>
